<svg id="katman_1" data-name="katman 1" xmlns="http://www.w3.org/2000/svg" viewBox="0 0 635.92 334.9"><defs><style>.cls-1{fill:#009245;}.cls-1,.cls-3,.cls-4{stroke:#fff;stroke-miterlimit:10;stroke-width:2px;}.cls-2{fill:#00c333;}.cls-3{fill:#ff74e1;}.cls-4{fill:#ffae2a;}</style></defs><title>fga-logo</title><path class="cls-1" d="M193.49,310.72c-1.9-35.11-7.37-50.34-36.21-72.27C139.51,224.94,52.67,161.15,43.58,166c-15.29,8.15-34.25-12.91-28.79-26.73,7.1-18,30.74-17.73,42.12,2.35,4.55,8,78.44,47.13,83.54,43.81,6.09-4-40.57-94.68-50.58-98.25C64,78,63.86,57,77.73,47c13.57-9.83,39-2.21,35.22,26.14-1.07,8,40.08,74.71,54.79,95.9a3.23,3.23,0,0,0,5.89-1.82c.17-25.8-3.55-104.12-8.94-110.09-19.16-21.23-2.45-41.91,14.3-41.46,17.12.45,28.82,17.8,12.68,40-6.25,8.6,6.46,109.81,13.74,109.65,6.08-.13,45-74.14,44.2-83.33C247.67,59,267,45.44,283,56.26c12.32,8.33,8.56,36.41-8.66,38.33-10.23,1.13-42.42,90.56-54.22,126.48-9.87,30.05-.39,48.42,15.86,75.78,0,0-3.87,8.07-19.29,12.84C201.05,314.54,193.49,310.72,193.49,310.72Z"/><path class="cls-2" d="M191.53,235.48c-18.47,5.71-75.09-36.11-93.62-46.87-24.28-14.1-48.1-31.91-56-29.45a8.78,8.78,0,0,0-1.58.66,8.94,8.94,0,0,1-1.51.63c-4.73,1.46-9.81-1.69-13-5.12-4.05-4.38-5.9-9.93-4.49-13.5,1.64-4.15,4.48-7,8.22-8.11,8.7-2.69,17.14,4,21.3,11.35,3.63,6.4,25.69,19,43.56,28.46,40,21.13,45.32,19.48,47.88,18.69a7.87,7.87,0,0,0,2-.94c2-1.3,4.24-4,3.61-9.36-1.17-9.89-13.42-35.76-23.55-54.91C101.52,83.89,94.52,81.4,92.22,80.58c-9.64-3.44-15.68-9-16.57-15.21-.67-4.68,1.64-9.43,6.18-12.71a14.22,14.22,0,0,1,4.13-2,16,16,0,0,1,14.78,2.82c4.58,3.87,6.41,10.36,5.27,18.75-.39,2.91-1,7.77,22.39,47.49C141.16,141.31,155,162.88,162,173a10.23,10.23,0,0,0,18.64-5.77c.08-12.34-.72-37.94-2.4-63-3.09-46-6.38-49.65-8.34-51.83-5.68-6.29-7.84-12.67-6.25-18.45A16,16,0,0,1,174.26,23.3a14.12,14.12,0,0,1,4.55-.65c5.6.15,10.19,2.77,12.28,7,2.78,5.65.93,13.63-5.09,21.91-1.43,2-5.8,8-.27,56.45,2.45,21.53,7,49.79,11.57,58.62,2.51,4.79,5.88,5.74,8.26,5.69a8.22,8.22,0,0,0,2.19-.36c2.56-.8,7.9-2.45,29-42.47,9.41-17.89,20.5-40.75,19.88-48.09C255.88,73,259.07,62.7,267.76,60a13,13,0,0,1,11.36,2c3.18,2.15,4.79,7.78,3.92,13.68-.69,4.63-3.1,10.1-7.83,11.56a8.25,8.25,0,0,1-1.6.33,8.9,8.9,0,0,0-1.69.35c-4.06,1.26-10.2,3.16-31,55.23C230.15,170.3,210.37,229.65,191.53,235.48Z"/><path class="cls-1" d="M334.34,133.61a7.08,7.08,0,0,1-4.89,2,6.89,6.89,0,0,1-4.62-1.86,9,9,0,0,1-2.67-5.78V83.74q-4.62-2.13-4.62-6.58a7.12,7.12,0,0,1,1.16-3.82,6.77,6.77,0,0,1,3.46-2.75V69.34c0-1.42,0-3.11.09-5.06s.09-4.06.09-6.32a91.53,91.53,0,0,0-.53-10,16.76,16.76,0,0,0-2.49-7.65,11.43,11.43,0,0,1-1.07-4.44q0-5.16,5.51-6.93A111,111,0,0,1,337,27.65q6.66-.25,13.33-.35T363.76,27A122.41,122.41,0,0,0,377.1,26c2.84,0,5,.66,6.49,2a6.35,6.35,0,0,1,2.22,5,7,7,0,0,1-1.69,4.53,9.55,9.55,0,0,1-5.25,2.93,156.3,156.3,0,0,1-21.68,1.34q-10.86-.09-21.69.62a47.36,47.36,0,0,1,1.15,7.73q.27,4,.27,7.91c0,2,0,3.92-.09,5.69s-.09,3.5-.09,5.16v1.78q9.6,0,19.73-.45a70,70,0,0,0,17.6-2.75,9.62,9.62,0,0,1,6.4,2,6.26,6.26,0,0,1,2.32,5c0,3-1.67,5.19-5,6.67a42.75,42.75,0,0,1-12.09,3.11,122.47,122.47,0,0,1-15.11.89H336.74v42.49C336.62,130.2,335.82,132.25,334.34,133.61Z"/><path class="cls-1" d="M402.16,70.41A10.16,10.16,0,0,1,398.25,67,7.2,7.2,0,0,1,397,63.12,6.61,6.61,0,0,1,399,58.41a7.06,7.06,0,0,1,5.34-2,15.31,15.31,0,0,1,6.22,1.78,21.3,21.3,0,0,1,5.87,3.91,61.87,61.87,0,0,1,11.37-7.64,25.87,25.87,0,0,1,11.92-3,21.73,21.73,0,0,1,5.15.89,30.43,30.43,0,0,1,6.67,2.66,21.11,21.11,0,0,1,5.78,4.62,9.74,9.74,0,0,1,2.48,6.58A6.45,6.45,0,0,1,457.81,71,6.69,6.69,0,0,1,453,72.9a5.56,5.56,0,0,1-3.47-1.16c-1-.77-2-1.6-3-2.49a24.73,24.73,0,0,0-3.2-2.4,7,7,0,0,0-3.82-1.06,11.89,11.89,0,0,0-5.42,1.51,45,45,0,0,0-5.87,3.64,60.23,60.23,0,0,0-5.6,4.62Q419.94,78.07,418,80V127.3q-.18,4.1-2.4,6.13a7.11,7.11,0,0,1-4.89,2,6.9,6.9,0,0,1-4.62-1.87,8.91,8.91,0,0,1-2.67-5.78V79.3a4.08,4.08,0,0,0-.09-.8,3.6,3.6,0,0,1,0-1.6,4.08,4.08,0,0,0,.09-.8V70.94A11.22,11.22,0,0,0,402.16,70.41Z"/><path class="cls-1" d="M464,88.72a79.09,79.09,0,0,1,4.8-11.11,50.53,50.53,0,0,1,6.76-9.87,41.12,41.12,0,0,1,9-7.64,35.86,35.86,0,0,1,11.29-4.62q10.32-2.31,18,1.6a30.81,30.81,0,0,1,12.35,11.2,43.79,43.79,0,0,1,6.14,16.62,42.06,42.06,0,0,1-.8,17.86,55.33,55.33,0,0,1-9.42,19.56,38.81,38.81,0,0,1-17.07,13.16,30.38,30.38,0,0,1-14.67,2.22,28.09,28.09,0,0,1-12.62-4.54,33.11,33.11,0,0,1-9.51-9.77A37.54,37.54,0,0,1,463,109.7a39.2,39.2,0,0,1-.62-9.42A69.8,69.8,0,0,1,463.5,91Zm13.87,4.09a66.92,66.92,0,0,0-1,6.84,31.76,31.76,0,0,0,.27,7,19.43,19.43,0,0,0,3,8.62,17.75,17.75,0,0,0,6,5.86,14.9,14.9,0,0,0,7.92,2,17.78,17.78,0,0,0,8.79-2.75,27.29,27.29,0,0,0,9.34-9.25,46.78,46.78,0,0,0,5.24-12.27,29,29,0,0,0,.63-11.37,26.86,26.86,0,0,0-3.65-10.67,16.4,16.4,0,0,0-7.64-6.67q-4.8-2-11.38.62a25,25,0,0,0-11.2,9.07A52.81,52.81,0,0,0,477.9,92.81Z"/><path class="cls-1" d="M552,167.3a9.2,9.2,0,0,1-2.76-5,6.69,6.69,0,0,1,.71-4.62,7,7,0,0,1,3.65-2.93,8.64,8.64,0,0,1,5.87.08c1.53.83,2.84,1.57,3.91,2.23s2.13,1.24,3.2,1.77a21.82,21.82,0,0,0,3.29,1.34c1.12.35,2.45.71,4,1.06a31.5,31.5,0,0,0,6.93.72,31.17,31.17,0,0,0,7.38-.89,23.06,23.06,0,0,0,6.75-2.85,14,14,0,0,0,4.89-5.15,11.51,11.51,0,0,0,1.42-5.16c.12-2,.18-3.85.18-5.51V130.85a37.74,37.74,0,0,1-5.69,2.31c-1.89.6-3.85,1.19-5.86,1.78a61,61,0,0,1-8.54,1.16,31.89,31.89,0,0,1-8.53-.62A29.29,29.29,0,0,1,557.36,128,37.38,37.38,0,0,1,548,114.14a47.84,47.84,0,0,1-3.2-17.06A46.64,46.64,0,0,1,547.76,80,39.24,39.24,0,0,1,565.9,59.83a33.61,33.61,0,0,1,13-3.64,26.81,26.81,0,0,1,13.51,2.49,85.74,85.74,0,0,1,9.78,5.51,7.5,7.5,0,0,1,3-3.65,6.38,6.38,0,0,1,4.09-.89,7.49,7.49,0,0,1,4,1.87A9.44,9.44,0,0,1,616,66.14v75.74a42.67,42.67,0,0,1-2.85,16.44q-2.83,6.84-11,12.18a46.22,46.22,0,0,1-7.29,3.73,27,27,0,0,1-7.82,2,47.11,47.11,0,0,1-16.35-.71,38.53,38.53,0,0,1-9.6-3.29Q557.18,170.14,552,167.3Zm48.18-53a2.8,2.8,0,0,1,1.24-.35V82c-.12,0-.18,0-.18-.17a59.41,59.41,0,0,0-8.09-6.4,33.72,33.72,0,0,0-9.51-4.45l-4.26.36-4.27.35c-.95.48-1.93.95-2.93,1.43s-2,1-2.94,1.42q-8.88,9.06-9.68,18.49t4.35,20.8c.59.71,1.24,1.42,2,2.13s1.36,1.42,2,2.13Q584.92,126.59,600.21,114.32Z"/><path class="cls-3" d="M391.75,193.48a8.34,8.34,0,0,1,4.63,2.73,6.46,6.46,0,0,1,1.49,4,6,6,0,0,1-1.32,3.72,8.7,8.7,0,0,1-3.81,2.73v24.81a8.45,8.45,0,0,1-2.4,6.12c-1.6,1.66-3.11,3.2-4.55,4.64A31.52,31.52,0,0,1,373.31,250a46.3,46.3,0,0,1-14.64,2.4,43,43,0,0,1-21.18-5.05,49.25,49.25,0,0,1-15.13-12.74,55.73,55.73,0,0,1-9.1-16.79,54.42,54.42,0,0,1-3.06-17.37A51.4,51.4,0,0,1,311.36,190a54.91,54.91,0,0,1,3.55-11.08,50.52,50.52,0,0,1,6-10.26,32.78,32.78,0,0,1,8.6-7.94,105.16,105.16,0,0,1,18.28-9.51,51.25,51.25,0,0,1,19.11-3.72,47.6,47.6,0,0,1,6.78.58,44.63,44.63,0,0,1,7.69,1.82,20,20,0,0,1,6.37,3.39,6.59,6.59,0,0,1,2.65,5.29,6.08,6.08,0,0,1-1.82,4.47,6.31,6.31,0,0,1-4.64,1.82,11.21,11.21,0,0,1-3.47-.66l-4.22-1.41c-1.49-.5-3-1-4.63-1.41a17.71,17.71,0,0,0-4.71-.66,28.66,28.66,0,0,0-3.15.17,14.41,14.41,0,0,0-3,.66q-6.46,2-13.07,4.71a46.35,46.35,0,0,0-12,7.2,34.23,34.23,0,0,0-8.68,11q-3.31,6.54-3.31,16.29A40.72,40.72,0,0,0,334,227.88,35,35,0,0,0,344.77,236a28.86,28.86,0,0,0,12.74,3,29.61,29.61,0,0,0,11.41-2.32,31.26,31.26,0,0,0,10.26-7V207.21q-6.3.16-12.49.16H354.2a8.38,8.38,0,0,1-5.38-2.48,6.39,6.39,0,0,1-1.73-4.3A7,7,0,0,1,349,196c1.26-1.49,3.17-2.23,5.71-2.23q1.65,0,7-.09t11.49-.08c4.08,0,7.91,0,11.5-.08S390.65,193.48,391.75,193.48Z"/><path class="cls-3" d="M413.25,153.77a8.91,8.91,0,0,1,2.32-6.2,7.29,7.29,0,0,1,5.62-2.56,7.55,7.55,0,0,1,5.71,2.56,8.75,8.75,0,0,1,2.4,6.2,8.54,8.54,0,0,1-2.4,6,7.56,7.56,0,0,1-5.71,2.57,7.3,7.3,0,0,1-5.62-2.57A8.69,8.69,0,0,1,413.25,153.77Zm15.22,90a7.87,7.87,0,0,1-2.23,5.71,6.58,6.58,0,0,1-4.55,1.9,6.42,6.42,0,0,1-4.3-1.73,8.33,8.33,0,0,1-2.48-5.38q-.17-15.54-.25-31.76t-.25-31.76a9.6,9.6,0,0,1,2.65-5,5.94,5.94,0,0,1,4.13-1.66,6.49,6.49,0,0,1,4.06,1.49,8.45,8.45,0,0,1,2.73,4.63q.15,15.56.24,31.76T428.47,243.76Z"/><path class="cls-3" d="M453.45,191.49a9.38,9.38,0,0,1-3.64-3.14,6.76,6.76,0,0,1-1.16-3.64,6.14,6.14,0,0,1,1.82-4.38,6.54,6.54,0,0,1,5-1.91,14.19,14.19,0,0,1,5.79,1.66,19.26,19.26,0,0,1,5.46,3.64,57.63,57.63,0,0,1,10.59-7.12,24,24,0,0,1,11.08-2.81,20.77,20.77,0,0,1,4.8.83,28.18,28.18,0,0,1,6.2,2.48,19.4,19.4,0,0,1,5.38,4.3,9,9,0,0,1,2.31,6.12,6,6,0,0,1-1.81,4.55,6.24,6.24,0,0,1-4.47,1.74,5.16,5.16,0,0,1-3.23-1.08c-.94-.71-1.87-1.49-2.81-2.31a23,23,0,0,0-3-2.24,6.52,6.52,0,0,0-3.55-1,11.1,11.1,0,0,0-5.05,1.41,40.55,40.55,0,0,0-5.46,3.39,54.53,54.53,0,0,0-5.21,4.3c-1.65,1.54-3.09,2.92-4.3,4.13v44a7.84,7.84,0,0,1-2.23,5.7,6.58,6.58,0,0,1-4.55,1.9,6.37,6.37,0,0,1-4.3-1.73,8.33,8.33,0,0,1-2.48-5.38V199.76a3.46,3.46,0,0,0-.09-.74,3.51,3.51,0,0,1,0-1.49,3.55,3.55,0,0,0,.09-.75V192A9.87,9.87,0,0,0,453.45,191.49Z"/><path class="cls-3" d="M538,241.12a7.86,7.86,0,0,1,3.47,4.88,6.46,6.46,0,0,1-.74,4.71,6.75,6.75,0,0,1-3.81,2.81,7.71,7.71,0,0,1-5.87-.82l-3-2c-1-.66-2-1.32-3.14-2a7.54,7.54,0,0,1-2-2.48,14.52,14.52,0,0,1-.82-3.31V151.13a8.39,8.39,0,0,1,2.56-4.8,6.45,6.45,0,0,1,4-1.74,6.29,6.29,0,0,1,4,1.41,8.89,8.89,0,0,1,3,4.63v89l1.08.74A8,8,0,0,0,538,241.12Z"/><path class="cls-4" d="M348.55,306.15a3.78,3.78,0,0,1-.67,2.07,2.42,2.42,0,0,1-1.47,1,2.56,2.56,0,0,1-1.73-.3,3.75,3.75,0,0,1-1.47-1.61,57.33,57.33,0,0,0-1.14-6.17c-.49-2-1.06-4-1.73-6l-17.69.13-.3,0a1.25,1.25,0,0,0-.31,0q-1.67,5.69-3,11.75a3.15,3.15,0,0,1-1.54,1.87,2.62,2.62,0,0,1-1.9.2,2.59,2.59,0,0,1-1.47-1.2,3.34,3.34,0,0,1-.3-2.4,195.72,195.72,0,0,1,5.31-18.93,120.09,120.09,0,0,1,7.78-18.06,3.1,3.1,0,0,1,3.27-1.7,2.39,2.39,0,0,1,1.13.63c.05,0,.07,0,.07,0s0,0,.07,0a32,32,0,0,1,5.81,7.54q2.33,4.22,4.27,8.55c.49,1,.94,2.05,1.37,3.07s.83,2.05,1.23,3.07l3.54-.07a3.58,3.58,0,0,1,1.87,1.21,2.54,2.54,0,0,1,.57,1.63,2.58,2.58,0,0,1-.7,1.6,3.38,3.38,0,0,1-1.94,1h-1.4q.87,2.73,1.5,5.51A52.28,52.28,0,0,1,348.55,306.15ZM330.12,274q-1.86,3.81-3.44,7.75c-1,2.63-2,5.27-2.9,7.94l14.56-.13c-.58-1.33-1.17-2.65-1.77-3.94s-1.22-2.58-1.84-3.87-1.43-2.6-2.14-3.94A26.66,26.66,0,0,0,330.12,274Z"/><path class="cls-4" d="M378.33,303.61a3.16,3.16,0,0,1,.7,2.3,2.84,2.84,0,0,1-.87,1.74,2.49,2.49,0,0,1-1.8.6,3.23,3.23,0,0,1-2.17-1.1,4.85,4.85,0,0,1-.6-.7,3.51,3.51,0,0,1-.41-.7,14.55,14.55,0,0,1-4.64,2.7,15.22,15.22,0,0,1-5.34,1,12.64,12.64,0,0,1-5.17-1.1,10.08,10.08,0,0,1-4.14-3.44,12.09,12.09,0,0,1-1.84-4,18.68,18.68,0,0,1,0-9.08,25.54,25.54,0,0,1,1.44-4.17,9.9,9.9,0,0,1,2.3-3.14,14.59,14.59,0,0,1,3.17-2.27,16.76,16.76,0,0,1,3.44-1.44,15.38,15.38,0,0,1,3.64-.63c1.07,0,2.14,0,3.21.07a12.36,12.36,0,0,1,3.13.53c0-3.2-.08-5.91-.1-8.11s0-3.68,0-4.44a3.47,3.47,0,0,1,1-1.94,2.69,2.69,0,0,1,1.61-.7,2.54,2.54,0,0,1,1.63.57,3.55,3.55,0,0,1,1.2,1.87v34.92a2.6,2.6,0,0,0,.3.36A2.64,2.64,0,0,1,378.33,303.61Zm-5.88-4.81v-6.37c0-2,0-3.86-.07-5.64l-.4-.2-.36-.27-.37-.27a13.06,13.06,0,0,0-4.21-.53,12.07,12.07,0,0,0-4.14.83,10.54,10.54,0,0,0-3.44,2.24,8,8,0,0,0-2.1,3.74,10.73,10.73,0,0,0-.4,3.6c.09,1,.22,2.23.4,3.61.18.36.35.71.5,1.07s.32.71.5,1.07L359.7,303a9.46,9.46,0,0,1,1.53.67,14.6,14.6,0,0,0,4.91-.27,10,10,0,0,0,4.31-2.34,1.49,1.49,0,0,1,.3-.36l.5-.5.5-.5a3.92,3.92,0,0,1,.3-.3Z"/><path class="cls-4" d="M403.09,280.38a3.34,3.34,0,0,1,1.57-1.5,2.64,2.64,0,0,1,1.74-.14,2.53,2.53,0,0,1,1.4,1.07,3.36,3.36,0,0,1,.5,2.1c-.62,2.41-1.35,4.75-2.17,7s-1.63,4.59-2.44,6.91l-2.23,6.31c-.74,2.07-1.55,4.12-2.44,6.17a2.89,2.89,0,0,1-2.67,1.27,3,3,0,0,1-2.27-1.87q-2.4-6.35-4.91-12.55T383.6,283a3.11,3.11,0,0,1-.34-2.37,2.74,2.74,0,0,1,1.14-1.53,2.53,2.53,0,0,1,1.9-.3,3.15,3.15,0,0,1,2,1.4q2.34,4.67,4.41,9.48t4,9.75c.32-.85.62-1.7.91-2.54s.58-1.69.9-2.54c.8-2.31,1.6-4.62,2.4-6.91S402.43,282.78,403.09,280.38Z"/><path class="cls-4" d="M436,300.54a3.22,3.22,0,0,1,2.4-.13,2.53,2.53,0,0,1,1.57,3.2,3.1,3.1,0,0,1-1.57,1.8,41.81,41.81,0,0,1-4.74,2.34,21.89,21.89,0,0,1-5.14,1.47,16.11,16.11,0,0,1-5.14,0,12.15,12.15,0,0,1-4.87-2,12.3,12.3,0,0,1-4.28-5.24,17.49,17.49,0,0,1-1.53-6.88,16.87,16.87,0,0,1,1.3-6.87,11.68,11.68,0,0,1,4.3-5.31,23.55,23.55,0,0,1,6.68-3.11,14.72,14.72,0,0,1,7.28-.23,7.26,7.26,0,0,1,3.27,1.7,10.59,10.59,0,0,1,2.37,3,8.27,8.27,0,0,1,1,3.6,6.38,6.38,0,0,1-.94,3.57,9.42,9.42,0,0,1-3.27,3.18,25.76,25.76,0,0,1-4.64,2.2,47.62,47.62,0,0,1-5,1.5c-1.66.4-3.12.78-4.37,1.14a3.62,3.62,0,0,1-1.53.06,8.55,8.55,0,0,0,3,3.51,7.49,7.49,0,0,0,4.9,1.17,12.19,12.19,0,0,0,4.71-1.31Q434.07,301.69,436,300.54Zm-13-14.22a8.29,8.29,0,0,0-3.67,3.57,10.36,10.36,0,0,0-1.21,4.84,4.43,4.43,0,0,1,1-.53c.8-.22,1.61-.46,2.43-.7s1.66-.48,2.51-.7l2.17-.6c.91-.27,1.85-.58,2.83-.94a17.35,17.35,0,0,0,2.67-1.23,3.8,3.8,0,0,0,1.61-1.57c.09-1.47-.27-2.47-1.07-3a5.09,5.09,0,0,0-2.87-.8,11.44,11.44,0,0,0-3.47.57A22.83,22.83,0,0,0,423,286.32Z"/><path class="cls-4" d="M468.29,308.65a2.68,2.68,0,0,1-1.84.77,2.6,2.6,0,0,1-1.74-.7,3.43,3.43,0,0,1-1-2.17c0-2.05,0-4.08,0-6.11s0-4.06,0-6.11q0-2.2,0-4.41a27.2,27.2,0,0,0-.3-4.4,2.49,2.49,0,0,0-1.17-1.24,4.46,4.46,0,0,0-1.5-.23,9.93,9.93,0,0,0-4.47,1.1,8.81,8.81,0,0,0-3.48,3c-.49.76-.88,1.39-1.16,1.9a5.71,5.71,0,0,0-.57,2.24v6.81q0,3.41.06,6.81a3.14,3.14,0,0,1-.9,2.3,2.54,2.54,0,0,1-3.57.07,3.38,3.38,0,0,1-1-2.17v-6.21q0-3,0-5.94t0-6v-6.24a3.94,3.94,0,0,1,1.07-2,2.4,2.4,0,0,1,1.67-.67,2.64,2.64,0,0,1,1.64.6,3.41,3.41,0,0,1,1.1,1.87v.53a15.24,15.24,0,0,1,4.37-2.63,13.13,13.13,0,0,1,4.91-1,10,10,0,0,1,4.64,1.13,8.4,8.4,0,0,1,3.5,3.68,6.18,6.18,0,0,1,.64,2.17c.11.86.17,1.78.2,2.73s0,1.94,0,2.94-.06,1.95-.06,2.84v12.35A3.22,3.22,0,0,1,468.29,308.65Z"/><path class="cls-4" d="M475.7,283.85a2.56,2.56,0,0,1-.7-1.74,2.81,2.81,0,0,1,.76-1.83,2.86,2.86,0,0,1,2.31-.9h3.74V268.83a3.86,3.86,0,0,1,1.06-2,2.4,2.4,0,0,1,1.67-.67,2.62,2.62,0,0,1,1.64.6,3.35,3.35,0,0,1,1.1,1.87v10.75h6.41a3.39,3.39,0,0,1,1.87,1.1,2.61,2.61,0,0,1,.6,1.63,2.38,2.38,0,0,1-.67,1.67,3.86,3.86,0,0,1-2,1.07h-6.21q-.06,5.14,0,10.58c0,3.63.07,7.16.07,10.58a2.87,2.87,0,0,1-2.74,3.08,2.61,2.61,0,0,1-1.74-.71,3.41,3.41,0,0,1-1-2.17q0-5.2,0-10.68t0-10.68h-3.94A3.36,3.36,0,0,1,475.7,283.85Z"/><path class="cls-4" d="M527.67,303.74a3.3,3.3,0,0,1,.74,2.07,2.43,2.43,0,0,1-.74,1.84,2.5,2.5,0,0,1-1.8.7,3.13,3.13,0,0,1-2.54-1.37,13.62,13.62,0,0,1-1.8-3.1,16.79,16.79,0,0,1-4.07,3.17,9.68,9.68,0,0,1-8.28.67,12.38,12.38,0,0,1-3.11-1.74,13.11,13.11,0,0,1-2.53-2.57,10.76,10.76,0,0,1-1.64-3.07,18.83,18.83,0,0,1-.73-3.84c-.14-1.4-.2-2.86-.2-4.37,0-1.83,0-3.61.13-5.34s.13-3.27.13-4.61a3.94,3.94,0,0,1,1.07-2,2.4,2.4,0,0,1,1.67-.67,2.64,2.64,0,0,1,1.64.6,3.44,3.44,0,0,1,1.1,1.87c0,2.09,0,4.11-.1,6s-.1,4-.1,6.18a10.84,10.84,0,0,0,1.6,6.14,5,5,0,0,0,4.34,2.4,5.25,5.25,0,0,0,2-.4,7.42,7.42,0,0,0,1.87-1.07,10,10,0,0,0,1.6-1.53c.49-.58.94-1.16,1.34-1.74a1.38,1.38,0,0,1,.33-.23,1.26,1.26,0,0,0,.34-.23,56.11,56.11,0,0,1-.4-6.75q0-1.94,0-3.9a22,22,0,0,1,.33-3.61,7.09,7.09,0,0,1,1-2.67,2.25,2.25,0,0,1,2-1,2.56,2.56,0,0,1,1.81.76,3,3,0,0,1,.8,2.24,35.34,35.34,0,0,1-.24,3.74,45.3,45.3,0,0,0-.23,4.61c0,1.24,0,2.49.13,3.73a35.38,35.38,0,0,0,.44,3.58,19.43,19.43,0,0,0,.8,3.1A8.08,8.08,0,0,0,527.67,303.74Z"/><path class="cls-4" d="M535.61,285.12a3.85,3.85,0,0,1-1.46-1.27,2.66,2.66,0,0,1-.47-1.47,2.47,2.47,0,0,1,.73-1.77,2.66,2.66,0,0,1,2-.77,5.78,5.78,0,0,1,2.33.67A8.15,8.15,0,0,1,541,282a23.15,23.15,0,0,1,4.27-2.87A9.64,9.64,0,0,1,549.7,278a8.55,8.55,0,0,1,1.94.34,11.45,11.45,0,0,1,2.5,1,7.57,7.57,0,0,1,2.17,1.74,3.64,3.64,0,0,1,.94,2.47,2.43,2.43,0,0,1-.74,1.83,2.5,2.5,0,0,1-1.8.7,2.06,2.06,0,0,1-1.3-.43c-.38-.29-.76-.6-1.14-.94a10.43,10.43,0,0,0-1.2-.9,2.69,2.69,0,0,0-1.44-.4,4.45,4.45,0,0,0-2,.57,15.89,15.89,0,0,0-2.2,1.37,21.79,21.79,0,0,0-2.11,1.73c-.66.63-1.24,1.18-1.73,1.67v17.76a3.2,3.2,0,0,1-.9,2.3,2.63,2.63,0,0,1-1.84.77,2.6,2.6,0,0,1-1.74-.7,3.43,3.43,0,0,1-1-2.17V288.46a1.69,1.69,0,0,0,0-.3,1.78,1.78,0,0,1,0-.3,1.89,1.89,0,0,1,0-.31,1.69,1.69,0,0,0,0-.3v-1.93A2.85,2.85,0,0,0,535.61,285.12Z"/><path class="cls-4" d="M582,300.54a3.22,3.22,0,0,1,2.4-.13,2.53,2.53,0,0,1,1.57,3.2,3.1,3.1,0,0,1-1.57,1.8,41.81,41.81,0,0,1-4.74,2.34,21.89,21.89,0,0,1-5.14,1.47,16.11,16.11,0,0,1-5.14,0,12.15,12.15,0,0,1-4.87-2,12.3,12.3,0,0,1-4.28-5.24,17.49,17.49,0,0,1-1.53-6.88,16.87,16.87,0,0,1,1.3-6.87,11.64,11.64,0,0,1,4.31-5.31,23.37,23.37,0,0,1,6.67-3.11,14.72,14.72,0,0,1,7.28-.23,7.26,7.26,0,0,1,3.27,1.7,10.59,10.59,0,0,1,2.37,3,8.27,8.27,0,0,1,1,3.6,6.38,6.38,0,0,1-.94,3.57,9.42,9.42,0,0,1-3.27,3.18,25.76,25.76,0,0,1-4.64,2.2,47.62,47.62,0,0,1-5,1.5c-1.66.4-3.12.78-4.37,1.14a3.62,3.62,0,0,1-1.53.06,8.55,8.55,0,0,0,3,3.51,7.49,7.49,0,0,0,4.9,1.17,12.19,12.19,0,0,0,4.71-1.31Q580,301.69,582,300.54Zm-13-14.22a8.29,8.29,0,0,0-3.67,3.57,10.35,10.35,0,0,0-1.2,4.84,4.17,4.17,0,0,1,1-.53c.8-.22,1.61-.46,2.43-.7s1.66-.48,2.51-.7l2.17-.6c.91-.27,1.85-.58,2.83-.94a17.35,17.35,0,0,0,2.67-1.23,3.8,3.8,0,0,0,1.61-1.57c.09-1.47-.27-2.47-1.07-3a5.09,5.09,0,0,0-2.87-.8,11.49,11.49,0,0,0-3.47.57A24,24,0,0,0,568.93,286.32Z"/><path class="cls-4" d="M590.89,303.48a3.37,3.37,0,0,1-.4-2.17,2.74,2.74,0,0,1,.84-1.54,2.33,2.33,0,0,1,1.63-.57,3.66,3.66,0,0,1,2.07.74,10.89,10.89,0,0,0,3.64,3,11.83,11.83,0,0,0,4.51,1.27l1.4-.4c.35-.27.6-.44.73-.53a1.41,1.41,0,0,0,.3-.24,2.23,2.23,0,0,0,.27-.3c.11-.13.3-.37.57-.73a3,3,0,0,0,.2-.54,4.66,4.66,0,0,1,.2-.6,5.47,5.47,0,0,1,0-.6,5,5,0,0,0,0-.6l-.41-1.2a6.67,6.67,0,0,0-.43-.53,6.77,6.77,0,0,1-.43-.54,12.57,12.57,0,0,0-3.34-1.53c-1.11-.31-2.19-.64-3.24-1a18.23,18.23,0,0,1-3.07-1.3,8.8,8.8,0,0,1-2.84-2.61,6.36,6.36,0,0,1-1.37-3.7,9.74,9.74,0,0,1,.67-4,10.06,10.06,0,0,1,2.27-3.44,6.68,6.68,0,0,1,3.44-1.9,13.72,13.72,0,0,1,5.71-.14,19.15,19.15,0,0,1,5.44,1.87,3.17,3.17,0,0,1,1.4,2,2.65,2.65,0,0,1-.3,1.91,2.71,2.71,0,0,1-1.54,1.13,3.15,3.15,0,0,1-2.37-.33,10.19,10.19,0,0,0-3.37-1.14,11.87,11.87,0,0,0-3.57,0,1.4,1.4,0,0,1-.43.2,1.75,1.75,0,0,0-.44.2,5.79,5.79,0,0,0-1.06,1.57,2.69,2.69,0,0,0,.06,2.71c.14.17.27.33.4.46a3.79,3.79,0,0,1,.4.47,15.54,15.54,0,0,0,3.51,1.37c1.27.33,2.5.71,3.7,1.13a14.7,14.7,0,0,1,3.34,1.67,6.76,6.76,0,0,1,2.41,3,9.67,9.67,0,0,1,.5,7,10.68,10.68,0,0,1-4.44,5.41,10.5,10.5,0,0,1-1.94.9,6.31,6.31,0,0,1-2,.37,16.43,16.43,0,0,1-7.08-1.64A14.41,14.41,0,0,1,590.89,303.48Z"/></svg>