<svg id="katman_1" data-name="katman 1" xmlns="http://www.w3.org/2000/svg" viewBox="0 0 635.92 334.9"><defs><style>.cls-1{fill:#009245;}.cls-1,.cls-3,.cls-4{stroke:#fff;stroke-miterlimit:10;stroke-width:2px;}.cls-2{fill:#00c333;}.cls-3{fill:#ff74e1;}.cls-4{fill:#ffae2a;}</style></defs><title>fga-logo</title><path class="cls-1" d="M181.17,312.15c2.74-25.63,5-51.77-23.89-73.7C139.51,224.94,52.67,161.15,43.58,166c-15.29,8.15-34.25-12.91-28.79-26.73,7.1-18,30.74-17.73,42.12,2.35,4.55,8,78.44,47.13,83.54,43.81,6.09-4-40.57-94.68-50.58-98.25C64,78,63.86,57,77.73,47c13.57-9.83,39-2.21,35.22,26.14-1.07,8,40.08,74.71,54.79,95.9a3.23,3.23,0,0,0,5.89-1.82c.17-25.8-3.55-104.12-8.94-110.09-19.16-21.23-2.45-41.91,14.3-41.46,17.12.45,28.82,17.8,12.68,40-6.25,8.6,6.46,109.81,13.74,109.65,6.08-.13,45-74.14,44.2-83.33C247.67,59,267,45.44,283,56.26c12.32,8.33,8.56,36.41-8.66,38.33-10.23,1.13-42.42,90.56-54.22,126.48-9.87,30.05,2.21,50.7,21.76,68.62,0,0-9.77,15.23-25.19,20C201.05,314.54,181.17,312.15,181.17,312.15Z"/><path class="cls-2" d="M191.53,235.48c-18.47,5.71-75.09-36.11-93.62-46.87-24.28-14.1-48.1-31.91-56-29.45a8.78,8.78,0,0,0-1.58.66,8.94,8.94,0,0,1-1.51.63c-4.73,1.46-9.81-1.69-13-5.12-4.05-4.38-5.9-9.93-4.49-13.5,1.64-4.15,4.48-7,8.22-8.11,8.7-2.69,17.14,4,21.3,11.35,3.63,6.4,25.69,19,43.56,28.46,40,21.13,45.32,19.48,47.88,18.69a7.87,7.87,0,0,0,2-.94c2-1.3,4.24-4,3.61-9.36-1.17-9.89-13.42-35.76-23.55-54.91C101.52,83.89,94.52,81.4,92.22,80.58c-9.64-3.44-15.68-9-16.57-15.21-.67-4.68,1.64-9.43,6.18-12.71a14.22,14.22,0,0,1,4.13-2,16,16,0,0,1,14.78,2.82c4.58,3.87,6.41,10.36,5.27,18.75-.39,2.91-1,7.77,22.39,47.49C141.16,141.31,155,162.88,162,173a10.23,10.23,0,0,0,18.64-5.77c.08-12.34-.72-37.94-2.4-63-3.09-46-6.38-49.65-8.34-51.83-5.68-6.29-7.84-12.67-6.25-18.45A16,16,0,0,1,174.26,23.3a14.12,14.12,0,0,1,4.55-.65c5.6.15,10.19,2.77,12.28,7,2.78,5.65.93,13.63-5.09,21.91-1.43,2-5.8,8-.27,56.45,2.45,21.53,7,49.79,11.57,58.62,2.51,4.79,5.88,5.74,8.26,5.69a8.22,8.22,0,0,0,2.19-.36c2.56-.8,7.9-2.45,29-42.47,9.41-17.89,20.5-40.75,19.88-48.09C255.88,73,259.07,62.7,267.76,60a13,13,0,0,1,11.36,2c3.18,2.15,4.79,7.78,3.92,13.68-.69,4.63-3.1,10.1-7.83,11.56a8.25,8.25,0,0,1-1.6.33,8.9,8.9,0,0,0-1.69.35c-4.06,1.26-10.2,3.16-31,55.23C230.15,170.3,210.37,229.65,191.53,235.48Z"/><path class="cls-1" d="M334.34,133.61a7.08,7.08,0,0,1-4.89,2,6.89,6.89,0,0,1-4.62-1.86,9,9,0,0,1-2.67-5.78V83.74q-4.62-2.13-4.62-6.58a7.12,7.12,0,0,1,1.16-3.82,6.77,6.77,0,0,1,3.46-2.75V69.34c0-1.42,0-3.11.09-5.06s.09-4.06.09-6.32a91.53,91.53,0,0,0-.53-10,16.76,16.76,0,0,0-2.49-7.65,11.43,11.43,0,0,1-1.07-4.44q0-5.16,5.51-6.93A111,111,0,0,1,337,27.65q6.66-.25,13.33-.35T363.76,27A122.41,122.41,0,0,0,377.1,26c2.84,0,5,.66,6.49,2a6.35,6.35,0,0,1,2.22,5,7,7,0,0,1-1.69,4.53,9.55,9.55,0,0,1-5.25,2.93,156.3,156.3,0,0,1-21.68,1.34q-10.86-.09-21.69.62a47.36,47.36,0,0,1,1.15,7.73q.27,4,.27,7.91c0,2,0,3.92-.09,5.69s-.09,3.5-.09,5.16v1.78q9.6,0,19.73-.45a70,70,0,0,0,17.6-2.75,9.62,9.62,0,0,1,6.4,2,6.26,6.26,0,0,1,2.32,5c0,3-1.67,5.19-5,6.67a42.75,42.75,0,0,1-12.09,3.11,122.47,122.47,0,0,1-15.11.89H336.74v42.49C336.62,130.2,335.82,132.25,334.34,133.61Z"/><path class="cls-1" d="M402.16,70.41A10.16,10.16,0,0,1,398.25,67,7.2,7.2,0,0,1,397,63.12,6.61,6.61,0,0,1,399,58.41a7.06,7.06,0,0,1,5.34-2,15.31,15.31,0,0,1,6.22,1.78,21.3,21.3,0,0,1,5.87,3.91,61.87,61.87,0,0,1,11.37-7.64,25.87,25.87,0,0,1,11.92-3,21.73,21.73,0,0,1,5.15.89,30.43,30.43,0,0,1,6.67,2.66,21.11,21.11,0,0,1,5.78,4.62,9.74,9.74,0,0,1,2.48,6.58A6.45,6.45,0,0,1,457.81,71,6.69,6.69,0,0,1,453,72.9a5.56,5.56,0,0,1-3.47-1.16c-1-.77-2-1.6-3-2.49a24.73,24.73,0,0,0-3.2-2.4,7,7,0,0,0-3.82-1.06,11.89,11.89,0,0,0-5.42,1.51,45,45,0,0,0-5.87,3.64,60.23,60.23,0,0,0-5.6,4.62Q419.94,78.07,418,80V127.3q-.18,4.1-2.4,6.13a7.11,7.11,0,0,1-4.89,2,6.9,6.9,0,0,1-4.62-1.87,8.91,8.91,0,0,1-2.67-5.78V79.3a4.08,4.08,0,0,0-.09-.8,3.6,3.6,0,0,1,0-1.6,4.08,4.08,0,0,0,.09-.8V70.94A11.22,11.22,0,0,0,402.16,70.41Z"/><path class="cls-1" d="M464,88.72a79.09,79.09,0,0,1,4.8-11.11,50.53,50.53,0,0,1,6.76-9.87,41.12,41.12,0,0,1,9-7.64,35.86,35.86,0,0,1,11.29-4.62q10.32-2.31,18,1.6a30.81,30.81,0,0,1,12.35,11.2,43.79,43.79,0,0,1,6.14,16.62,42.06,42.06,0,0,1-.8,17.86,55.33,55.33,0,0,1-9.42,19.56,38.81,38.81,0,0,1-17.07,13.16,30.38,30.38,0,0,1-14.67,2.22,28.09,28.09,0,0,1-12.62-4.54,33.11,33.11,0,0,1-9.51-9.77A37.54,37.54,0,0,1,463,109.7a39.2,39.2,0,0,1-.62-9.42A69.8,69.8,0,0,1,463.5,91Zm13.87,4.09a66.92,66.92,0,0,0-1,6.84,31.76,31.76,0,0,0,.27,7,19.43,19.43,0,0,0,3,8.62,17.75,17.75,0,0,0,6,5.86,14.9,14.9,0,0,0,7.92,2,17.78,17.78,0,0,0,8.79-2.75,27.29,27.29,0,0,0,9.34-9.25,46.78,46.78,0,0,0,5.24-12.27,29,29,0,0,0,.63-11.37,26.86,26.86,0,0,0-3.65-10.67,16.4,16.4,0,0,0-7.64-6.67q-4.8-2-11.38.62a25,25,0,0,0-11.2,9.07A52.81,52.81,0,0,0,477.9,92.81Z"/><path class="cls-1" d="M552,167.3a9.2,9.2,0,0,1-2.76-5,6.69,6.69,0,0,1,.71-4.62,7,7,0,0,1,3.65-2.93,8.64,8.64,0,0,1,5.87.08c1.53.83,2.84,1.57,3.91,2.23s2.13,1.24,3.2,1.77a21.82,21.82,0,0,0,3.29,1.34c1.12.35,2.45.71,4,1.06a31.5,31.5,0,0,0,6.93.72,31.17,31.17,0,0,0,7.38-.89,23.06,23.06,0,0,0,6.75-2.85,14,14,0,0,0,4.89-5.15,11.51,11.51,0,0,0,1.42-5.16c.12-2,.18-3.85.18-5.51V130.85a37.74,37.74,0,0,1-5.69,2.31c-1.89.6-3.85,1.19-5.86,1.78a61,61,0,0,1-8.54,1.16,31.89,31.89,0,0,1-8.53-.62A29.29,29.29,0,0,1,557.36,128,37.38,37.38,0,0,1,548,114.14a47.84,47.84,0,0,1-3.2-17.06A46.64,46.64,0,0,1,547.76,80,39.24,39.24,0,0,1,565.9,59.83a33.61,33.61,0,0,1,13-3.64,26.81,26.81,0,0,1,13.51,2.49,85.74,85.74,0,0,1,9.78,5.51,7.5,7.5,0,0,1,3-3.65,6.38,6.38,0,0,1,4.09-.89,7.49,7.49,0,0,1,4,1.87A9.44,9.44,0,0,1,616,66.14v75.74a42.67,42.67,0,0,1-2.85,16.44q-2.83,6.84-11,12.18a46.22,46.22,0,0,1-7.29,3.73,27,27,0,0,1-7.82,2,47.11,47.11,0,0,1-16.35-.71,38.53,38.53,0,0,1-9.6-3.29Q557.18,170.14,552,167.3Zm48.18-53a2.8,2.8,0,0,1,1.24-.35V82c-.12,0-.18,0-.18-.17a59.41,59.41,0,0,0-8.09-6.4,33.72,33.72,0,0,0-9.51-4.45l-4.26.36-4.27.35c-.95.48-1.93.95-2.93,1.43s-2,1-2.94,1.42q-8.88,9.06-9.68,18.49t4.35,20.8c.59.71,1.24,1.42,2,2.13s1.36,1.42,2,2.13Q584.92,126.59,600.21,114.32Z"/><path class="cls-3" d="M391.75,193.48a8.34,8.34,0,0,1,4.63,2.73,6.46,6.46,0,0,1,1.49,4,6,6,0,0,1-1.32,3.72,8.7,8.7,0,0,1-3.81,2.73v24.81a8.45,8.45,0,0,1-2.4,6.12c-1.6,1.66-3.11,3.2-4.55,4.64A31.52,31.52,0,0,1,373.31,250a46.3,46.3,0,0,1-14.64,2.4,43,43,0,0,1-21.18-5.05,49.25,49.25,0,0,1-15.13-12.74,55.73,55.73,0,0,1-9.1-16.79,54.42,54.42,0,0,1-3.06-17.37A51.4,51.4,0,0,1,311.36,190a54.91,54.91,0,0,1,3.55-11.08,50.52,50.52,0,0,1,6-10.26,32.78,32.78,0,0,1,8.6-7.94,105.16,105.16,0,0,1,18.28-9.51,51.25,51.25,0,0,1,19.11-3.72,47.6,47.6,0,0,1,6.78.58,44.63,44.63,0,0,1,7.69,1.82,20,20,0,0,1,6.37,3.39,6.59,6.59,0,0,1,2.65,5.29,6.08,6.08,0,0,1-1.82,4.47,6.31,6.31,0,0,1-4.64,1.82,11.21,11.21,0,0,1-3.47-.66l-4.22-1.41c-1.49-.5-3-1-4.63-1.41a17.71,17.71,0,0,0-4.71-.66,28.66,28.66,0,0,0-3.15.17,14.41,14.41,0,0,0-3,.66q-6.46,2-13.07,4.71a46.35,46.35,0,0,0-12,7.2,34.23,34.23,0,0,0-8.68,11q-3.31,6.54-3.31,16.29A40.72,40.72,0,0,0,334,227.88,35,35,0,0,0,344.77,236a28.86,28.86,0,0,0,12.74,3,29.61,29.61,0,0,0,11.41-2.32,31.26,31.26,0,0,0,10.26-7V207.21q-6.3.16-12.49.16H354.2a8.38,8.38,0,0,1-5.38-2.48,6.39,6.39,0,0,1-1.73-4.3A7,7,0,0,1,349,196c1.26-1.49,3.17-2.23,5.71-2.23q1.65,0,7-.09t11.49-.08c4.08,0,7.91,0,11.5-.08S390.65,193.48,391.75,193.48Z"/><path class="cls-3" d="M413.25,153.77a8.91,8.91,0,0,1,2.32-6.2,7.29,7.29,0,0,1,5.62-2.56,7.55,7.55,0,0,1,5.71,2.56,8.75,8.75,0,0,1,2.4,6.2,8.54,8.54,0,0,1-2.4,6,7.56,7.56,0,0,1-5.71,2.57,7.3,7.3,0,0,1-5.62-2.57A8.69,8.69,0,0,1,413.25,153.77Zm15.22,90a7.87,7.87,0,0,1-2.23,5.71,6.58,6.58,0,0,1-4.55,1.9,6.42,6.42,0,0,1-4.3-1.73,8.33,8.33,0,0,1-2.48-5.38q-.17-15.54-.25-31.76t-.25-31.76a9.6,9.6,0,0,1,2.65-5,5.94,5.94,0,0,1,4.13-1.66,6.49,6.49,0,0,1,4.06,1.49,8.45,8.45,0,0,1,2.73,4.63q.15,15.56.24,31.76T428.47,243.76Z"/><path class="cls-3" d="M453.45,191.49a9.38,9.38,0,0,1-3.64-3.14,6.76,6.76,0,0,1-1.16-3.64,6.14,6.14,0,0,1,1.82-4.38,6.54,6.54,0,0,1,5-1.91,14.19,14.19,0,0,1,5.79,1.66,19.26,19.26,0,0,1,5.46,3.64,57.63,57.63,0,0,1,10.59-7.12,24,24,0,0,1,11.08-2.81,20.77,20.77,0,0,1,4.8.83,28.18,28.18,0,0,1,6.2,2.48,19.4,19.4,0,0,1,5.38,4.3,9,9,0,0,1,2.31,6.12,6,6,0,0,1-1.81,4.55,6.24,6.24,0,0,1-4.47,1.74,5.16,5.16,0,0,1-3.23-1.08c-.94-.71-1.87-1.49-2.81-2.31a23,23,0,0,0-3-2.24,6.52,6.52,0,0,0-3.55-1,11.1,11.1,0,0,0-5.05,1.41,40.55,40.55,0,0,0-5.46,3.39,54.53,54.53,0,0,0-5.21,4.3c-1.65,1.54-3.09,2.92-4.3,4.13v44a7.84,7.84,0,0,1-2.23,5.7,6.58,6.58,0,0,1-4.55,1.9,6.37,6.37,0,0,1-4.3-1.73,8.33,8.33,0,0,1-2.48-5.38V199.76a3.46,3.46,0,0,0-.09-.74,3.51,3.51,0,0,1,0-1.49,3.55,3.55,0,0,0,.09-.75V192A9.87,9.87,0,0,0,453.45,191.49Z"/><path class="cls-3" d="M538,241.12a7.86,7.86,0,0,1,3.47,4.88,6.46,6.46,0,0,1-.74,4.71,6.75,6.75,0,0,1-3.81,2.81,7.71,7.71,0,0,1-5.87-.82l-3-2c-1-.66-2-1.32-3.14-2a7.54,7.54,0,0,1-2-2.48,14.52,14.52,0,0,1-.82-3.31V151.13a8.39,8.39,0,0,1,2.56-4.8,6.45,6.45,0,0,1,4-1.74,6.29,6.29,0,0,1,4,1.41,8.89,8.89,0,0,1,3,4.63v89l1.08.74A8,8,0,0,0,538,241.12Z"/><path class="cls-4" d="M345,310.23a3.82,3.82,0,0,1-1.76-.46,4.81,4.81,0,0,1-1.88-2l-.08-.16,0-.18a56.38,56.38,0,0,0-1.12-6.07c-.43-1.76-.93-3.53-1.49-5.27l-16.83.13c-1,3.51-1.94,7.17-2.76,10.9l0,.07,0,.07a4.14,4.14,0,0,1-2,2.42,3.94,3.94,0,0,1-1.66.39,3.41,3.41,0,0,1-.95-.14,3.52,3.52,0,0,1-2-1.64,4.34,4.34,0,0,1-.43-3.1c1.48-6.5,3.27-12.9,5.34-19.07A121.61,121.61,0,0,1,325,268a3.27,3.27,0,0,1,2.51-2.17,3.43,3.43,0,0,1,1.16-.21,3.3,3.3,0,0,1,.76.1,3.54,3.54,0,0,1,1.27.6h.62l0,.55a33.09,33.09,0,0,1,5.78,7.58c1.56,2.81,3,5.71,4.31,8.62.48,1,.95,2,1.38,3.1.34.81.67,1.63,1,2.44l3-.06.15.05a4.56,4.56,0,0,1,2.37,1.56,3.36,3.36,0,0,1-.18,4.49,4.4,4.4,0,0,1-2.48,1.36l-.1,0h-.16c.42,1.42.8,2.85,1.13,4.28a54.76,54.76,0,0,1,1,5.75v.17a4.76,4.76,0,0,1-.87,2.62,3.37,3.37,0,0,1-2.08,1.35A3.47,3.47,0,0,1,345,310.23ZM329.3,276c-1,2-1.86,4.1-2.69,6.17s-1.67,4.36-2.43,6.56l11.63-.11c-.38-.85-.76-1.69-1.15-2.53-.6-1.28-1.21-2.57-1.83-3.86s-1.41-2.56-2.12-3.9A26.23,26.23,0,0,0,329.3,276Z"/><path class="cls-4" d="M364.2,310.42a13.61,13.61,0,0,1-5.58-1.19,11.05,11.05,0,0,1-4.54-3.77,13.19,13.19,0,0,1-2-4.37,19.74,19.74,0,0,1,0-9.58,26.9,26.9,0,0,1,1.5-4.33,11.1,11.1,0,0,1,2.53-3.46,15.47,15.47,0,0,1,3.39-2.43,18.13,18.13,0,0,1,3.62-1.5,15.92,15.92,0,0,1,3.88-.68h.06c1.09,0,2.16,0,3.23.07a13.42,13.42,0,0,1,2.08.25q-.06-4-.09-6.82c0-2.21,0-3.69,0-4.45v-.1l0-.11a4.38,4.38,0,0,1,1.36-2.48,3.58,3.58,0,0,1,2.22-1H376a3.54,3.54,0,0,1,2.14.77,4.61,4.61,0,0,1,1.56,2.37l0,.15v34.72h0a5.15,5.15,0,0,1,.43.52,4,4,0,0,1,.85,3,3.77,3.77,0,0,1-1.18,2.33,3.4,3.4,0,0,1-2.36.86h-.15a4.22,4.22,0,0,1-2.84-1.39,6.27,6.27,0,0,1-.55-.62,16.78,16.78,0,0,1-9.73,3.18Zm-1.67-7.72c.49,0,1,.07,1.44.07a12.55,12.55,0,0,0,2.94-.33,9.21,9.21,0,0,0,3.77-2A3.9,3.9,0,0,1,371,300l1.23-1.23.18-.27v-6.07c0-1.72,0-3.41-.05-5a4.85,4.85,0,0,1-.41-.3c-.06,0-.11-.09-.18-.13a11.85,11.85,0,0,0-3.33-.46h-.41a11.38,11.38,0,0,0-3.8.76,9.48,9.48,0,0,0-3.11,2,7,7,0,0,0-1.83,3.28,9.8,9.8,0,0,0-.37,3.27c.08,1,.21,2.11.37,3.4.16.32.31.63.45.95s.26.59.41.88l1.05,1.06A12.26,12.26,0,0,1,362.53,302.7Z"/><path class="cls-4" d="M397.7,310.64l-.49,0a3.9,3.9,0,0,1-3-2.43c-1.63-4.27-3.27-8.49-4.93-12.61s-3.51-8.17-5.54-12.13a4.12,4.12,0,0,1-.4-3.14,3.71,3.71,0,0,1,1.56-2.07,3.39,3.39,0,0,1,1.83-.51,4.26,4.26,0,0,1,.78.07,4.16,4.16,0,0,1,2.6,1.8l.05.07,0,.07c1.56,3.13,3.05,6.33,4.43,9.53,1,2.39,2,4.83,3,7.3v0c.29-.85.59-1.7.91-2.55.79-2.3,1.59-4.61,2.4-6.9s1.52-4.61,2.18-7l0-.13.07-.11a4.41,4.41,0,0,1,2-1.92,3.85,3.85,0,0,1,1.46-.3,3.31,3.31,0,0,1,.93.13,3.51,3.51,0,0,1,2,1.47,4.29,4.29,0,0,1,.67,2.71v.11l0,.09c-.63,2.43-1.37,4.83-2.2,7.13s-1.63,4.59-2.43,6.9l-2.24,6.32c-.74,2.08-1.57,4.18-2.46,6.24l-.06.13-.09.11A4,4,0,0,1,397.7,310.64Z"/><path class="cls-4" d="M427.05,310.41a16.72,16.72,0,0,1-2.83-.24,13.42,13.42,0,0,1-9.89-7.85,18.58,18.58,0,0,1-1.62-7.27,17.83,17.83,0,0,1,1.38-7.28,12.75,12.75,0,0,1,4.66-5.75,24.77,24.77,0,0,1,7-3.24,15.89,15.89,0,0,1,4.36-.62,16.39,16.39,0,0,1,3.4.37,8.38,8.38,0,0,1,3.72,1.93,11.57,11.57,0,0,1,2.59,3.29,9.24,9.24,0,0,1,1.09,4,7.37,7.37,0,0,1-1.08,4.12,10.57,10.57,0,0,1-3.61,3.51,26.41,26.41,0,0,1-4.82,2.29,47.86,47.86,0,0,1-5.11,1.53c-1.64.4-3.1.77-4.33,1.13l-.11,0a7.76,7.76,0,0,0,1.84,1.77,6.11,6.11,0,0,0,3.6,1h0l.67,0a11.33,11.33,0,0,0,4.33-1.2c1.55-.77,3-1.53,4.24-2.27l.07-.05.08,0a5.1,5.1,0,0,1,1.83-.37,3.49,3.49,0,0,1,1.3.24,3.53,3.53,0,0,1,2.16,4.4,4,4,0,0,1-2,2.4,43.76,43.76,0,0,1-4.85,2.39,23,23,0,0,1-5.38,1.54A18,18,0,0,1,427.05,310.41Zm3.35-24.76a10.82,10.82,0,0,0-3.17.52,24.71,24.71,0,0,0-2.81,1.05,7.23,7.23,0,0,0-3.22,3.13,9.78,9.78,0,0,0-.95,2.77c.7-.19,1.35-.38,2-.58.83-.25,1.68-.48,2.53-.71.54-.14,1.25-.33,2.15-.59s1.83-.58,2.77-.92a14.91,14.91,0,0,0,2.51-1.16,3.16,3.16,0,0,0,1.12-1,2.09,2.09,0,0,0-.64-1.91A4.07,4.07,0,0,0,430.4,285.65Z"/><path class="cls-4" d="M467.45,310.42a3.54,3.54,0,0,1-2.39-.95,4.37,4.37,0,0,1-1.34-2.79v-.13c0-2,0-4.08,0-6.1s0-4.07,0-6.12c0-1.47,0-2.95,0-4.42a26.36,26.36,0,0,0-.26-4.06,1.47,1.47,0,0,0-.56-.63,3.4,3.4,0,0,0-1.15-.17,8.86,8.86,0,0,0-4,1,7.69,7.69,0,0,0-3.08,2.69c-.47.73-.85,1.35-1.13,1.84a4.78,4.78,0,0,0-.45,1.84v6.72q0,3.39.06,6.79a4.16,4.16,0,0,1-1.22,3.06,3.66,3.66,0,0,1-2.51,1,3.58,3.58,0,0,1-2.4-.95,4.36,4.36,0,0,1-1.33-2.79v-6.34c0-2,0-4,0-5.93s0-4,0-6v-6.36l0-.12A4.88,4.88,0,0,1,447,279a3.39,3.39,0,0,1,2.34-.93,3.58,3.58,0,0,1,2.25.81,3.94,3.94,0,0,1,1.11,1.44,16.35,16.35,0,0,1,3.38-1.81,14.26,14.26,0,0,1,5.28-1,10.87,10.87,0,0,1,5.1,1.25,9.39,9.39,0,0,1,3.93,4.09,7.43,7.43,0,0,1,.74,2.51c.11.89.18,1.85.21,2.84s0,2,0,3-.06,1.92-.06,2.8v12.35a4.18,4.18,0,0,1-1.23,3A3.65,3.65,0,0,1,467.45,310.42Z"/><path class="cls-4" d="M485.61,310.09a3.58,3.58,0,0,1-2.4-.95,4.41,4.41,0,0,1-1.33-2.79v-.14c0-3.47,0-7,0-10.67q0-4.95,0-9.69h-3.08a4.32,4.32,0,0,1-2.79-1.33,3.57,3.57,0,0,1-.94-2.4,3.84,3.84,0,0,1,4.07-3.73h2.74V268.7l0-.11a4.83,4.83,0,0,1,1.36-2.51,3.43,3.43,0,0,1,2.34-.92,3.55,3.55,0,0,1,2.25.81,4.34,4.34,0,0,1,1.46,2.4l0,.13v9.88h5.54l.12,0a4.41,4.41,0,0,1,2.41,1.45,3.6,3.6,0,0,1,.81,2.25,3.36,3.36,0,0,1-.93,2.34,4.84,4.84,0,0,1-2.5,1.37l-.12,0h-5.34c0,3.1,0,6.32,0,9.57,0,3.63.07,7.16.07,10.59a3.84,3.84,0,0,1-1.26,3.07A3.79,3.79,0,0,1,485.61,310.09Z"/><path class="cls-4" d="M526.87,309.35a4.13,4.13,0,0,1-3.33-1.75,14.89,14.89,0,0,1-1.31-2,17.44,17.44,0,0,1-3.29,2.34,10.76,10.76,0,0,1-5.29,1.43,10.61,10.61,0,0,1-3.83-.7,13,13,0,0,1-3.36-1.88,14,14,0,0,1-2.72-2.76,11.84,11.84,0,0,1-1.79-3.35,20.59,20.59,0,0,1-.78-4.06c-.13-1.43-.2-2.93-.2-4.47,0-1.86,0-3.67.13-5.39s.13-3.25.13-4.56v-.12l0-.12a4.84,4.84,0,0,1,1.37-2.5,3.37,3.37,0,0,1,2.34-.93,3.58,3.58,0,0,1,2.25.81,4.36,4.36,0,0,1,1.45,2.4l0,.13V282c0,2.1,0,4.15-.1,6.08s-.1,4-.1,6.14a9.91,9.91,0,0,0,1.43,5.58,4,4,0,0,0,3.51,2,4.31,4.31,0,0,0,1.63-.33,6.61,6.61,0,0,0,1.63-.93,9,9,0,0,0,1.45-1.39,18.94,18.94,0,0,0,1.28-1.66l0-.07.06-.06a1.94,1.94,0,0,1,.31-.26,59,59,0,0,1-.33-6.25c0-1.29,0-2.6,0-3.92a22.81,22.81,0,0,1,.35-3.77,7.87,7.87,0,0,1,1.16-3.05,3.24,3.24,0,0,1,2.79-1.47,3.56,3.56,0,0,1,2.5,1,4,4,0,0,1,1.11,3,37.39,37.39,0,0,1-.24,3.85,43,43,0,0,0-.23,4.5c0,1.22,0,2.46.13,3.66s.23,2.37.42,3.47a19.21,19.21,0,0,0,.76,2.95,7.56,7.56,0,0,0,1.14,2.11,4.24,4.24,0,0,1,1,2.69,3.37,3.37,0,0,1-1,2.56A3.49,3.49,0,0,1,526.87,309.35Z"/><path class="cls-4" d="M539.82,310.55a3.62,3.62,0,0,1-2.4-.94,4.41,4.41,0,0,1-1.33-2.79V288.46a.41.41,0,0,0,0-.11,2,2,0,0,1-.05-.49,2.21,2.21,0,0,1,.05-.51.31.31,0,0,0,0-.1V286a4.78,4.78,0,0,1-1.78-1.58,3.75,3.75,0,0,1-.62-2,3.47,3.47,0,0,1,1-2.46,3.64,3.64,0,0,1,2.73-1.08,6.55,6.55,0,0,1,2.76.77,9.74,9.74,0,0,1,1.79,1.07,23.61,23.61,0,0,1,3.8-2.46A10.7,10.7,0,0,1,550.7,277a9,9,0,0,1,2.19.37,12.35,12.35,0,0,1,2.73,1.09,8.85,8.85,0,0,1,2.44,2,4.6,4.6,0,0,1,1.19,3.13,3.44,3.44,0,0,1-1,2.56,3.52,3.52,0,0,1-2.49,1,3,3,0,0,1-1.91-.64c-.4-.3-.79-.63-1.19-1a10.27,10.27,0,0,0-1.07-.8,1.64,1.64,0,0,0-.91-.25,3.56,3.56,0,0,0-1.57.46,14.7,14.7,0,0,0-2.08,1.29,20.81,20.81,0,0,0-2,1.66c-.52.49-1,.94-1.41,1.35v17.34a4.16,4.16,0,0,1-1.23,3A3.6,3.6,0,0,1,539.82,310.55Z"/><path class="cls-4" d="M573,310.41a16.72,16.72,0,0,1-2.83-.24,13.42,13.42,0,0,1-9.89-7.85,18.54,18.54,0,0,1-1.62-7.27,17.83,17.83,0,0,1,1.38-7.28,12.75,12.75,0,0,1,4.66-5.75,24.77,24.77,0,0,1,7-3.24,15.89,15.89,0,0,1,4.36-.62,16.39,16.39,0,0,1,3.4.37,8.38,8.38,0,0,1,3.72,1.93,11.57,11.57,0,0,1,2.59,3.29,9.24,9.24,0,0,1,1.09,4,7.34,7.34,0,0,1-1.08,4.12,10.57,10.57,0,0,1-3.61,3.51,26.41,26.41,0,0,1-4.82,2.29,47.86,47.86,0,0,1-5.11,1.53c-1.64.39-3.09.77-4.33,1.13l-.11,0a7.76,7.76,0,0,0,1.84,1.77,6.11,6.11,0,0,0,3.6,1h0l.67,0a11.33,11.33,0,0,0,4.33-1.2c1.55-.77,3-1.53,4.24-2.27l.07-.05.08,0a5.1,5.1,0,0,1,1.83-.37,3.49,3.49,0,0,1,1.3.24,3.53,3.53,0,0,1,2.16,4.4,4,4,0,0,1-2,2.4,43.76,43.76,0,0,1-4.85,2.39,23,23,0,0,1-5.38,1.54A18,18,0,0,1,573,310.41Zm3.35-24.76a10.82,10.82,0,0,0-3.17.52,23.82,23.82,0,0,0-2.82,1.05,7.26,7.26,0,0,0-3.21,3.13,9.46,9.46,0,0,0-.94,2.77l2-.58c.83-.25,1.68-.48,2.53-.71.54-.14,1.25-.33,2.15-.59s1.83-.58,2.77-.92a14.55,14.55,0,0,0,2.51-1.16,3.16,3.16,0,0,0,1.12-1,2.09,2.09,0,0,0-.64-1.91A4.07,4.07,0,0,0,576.34,285.65Z"/><path class="cls-4" d="M604.58,310.69a17.54,17.54,0,0,1-7.51-1.74,15.45,15.45,0,0,1-6-4.88l0-.07,0-.08a4.32,4.32,0,0,1-.49-2.82,3.7,3.7,0,0,1,1.15-2.07,3.31,3.31,0,0,1,2.3-.83,4.64,4.64,0,0,1,2.64.92l.12.08.1.12a9.9,9.9,0,0,0,3.3,2.73,11,11,0,0,0,4,1.15l1-.3q.43-.33.63-.45l.15-.11.2-.24c.1-.11.26-.32.48-.61a1.34,1.34,0,0,0,.09-.26c0-.16.1-.35.17-.55s0-.37,0-.53,0-.21,0-.32l-.29-.88-.29-.36c-.13-.14-.25-.29-.37-.44a11.39,11.39,0,0,0-2.92-1.32c-1.12-.31-2.22-.64-3.27-1a19.41,19.41,0,0,1-3.24-1.37,9.78,9.78,0,0,1-3.17-2.89,7.31,7.31,0,0,1-1.57-4.26,10.7,10.7,0,0,1,.74-4.45A11.25,11.25,0,0,1,595,279.1a7.76,7.76,0,0,1,4-2.17,14.41,14.41,0,0,1,3.35-.39,15.1,15.1,0,0,1,2.74.25,20.08,20.08,0,0,1,5.72,2l.07,0,.06,0a4.17,4.17,0,0,1,1.8,2.61,3.61,3.61,0,0,1-.44,2.61,3.69,3.69,0,0,1-2.08,1.55,3.22,3.22,0,0,1-1,.16,4.63,4.63,0,0,1-2.09-.55,9.51,9.51,0,0,0-3.08-1,10.94,10.94,0,0,0-1.62-.12,11.92,11.92,0,0,0-1.46.09,1.94,1.94,0,0,1-.5.2l-.07,0a4.67,4.67,0,0,0-.79,1.18,3.07,3.07,0,0,0-.19,1.33,4.32,4.32,0,0,0,.2.45,3.74,3.74,0,0,0,.25.29,3.42,3.42,0,0,1,.35.39,14.87,14.87,0,0,0,3.1,1.18c1.28.34,2.55.73,3.79,1.16a16,16,0,0,1,3.56,1.78,7.85,7.85,0,0,1,2.76,3.47,10.64,10.64,0,0,1,.53,7.74,11.63,11.63,0,0,1-4.83,5.91,10.42,10.42,0,0,1-2.16,1A7.26,7.26,0,0,1,604.58,310.69Z"/></svg>