{
    "asset" : {
        "generator" : "Khronos glTF Blender I/O v1.5.17",
        "version" : "2.0"
    },
    "scene" : 0,
    "scenes" : [
        {
            "name" : "Scene",
            "nodes" : [
                0,
                3,
                4
            ]
        }
    ],
    "nodes" : [
        {
            "mesh" : 0,
            "name" : "Ground",
            "translation" : [
                1.7991459369659424,
                -0.5837936997413635,
                -1.9616934061050415
            ]
        },
        {
            "mesh" : 1,
            "name" : "Fern1",
            "rotation" : [
                0,
                -0.5877853035926819,
                0,
                0.80901700258255
            ]
        },
        {
            "mesh" : 2,
            "name" : "Fern2",
            "rotation" : [
                0,
                -0.5877853035926819,
                0,
                0.80901700258255
            ],
            "scale" : [
                1.1380161046981812,
                0.9573178887367249,
                1.1380161046981812
            ]
        },
        {
            "children" : [
                1,
                2
            ],
            "name" : "Fern",
            "rotation" : [
                0,
                0.5877852439880371,
                0,
                0.80901700258255
            ],
            "translation" : [
                -3.22345232963562,
                2.043782949447632,
                -4.765581130981445
            ]
        },
        {
            "mesh" : 3,
            "name" : "Bush",
            "scale" : [
                2.8386921882629395,
                2.8386921882629395,
                2.8386921882629395
            ],
            "translation" : [
                4.3023529052734375,
                3.741180896759033,
                2.9168524742126465
            ]
        }
    ],
    "animations" : [
        {
            "channels" : [
                {
                    "sampler" : 0,
                    "target" : {
                        "node" : 1,
                        "path" : "scale"
                    }
                }
            ],
            "name" : "Wave1",
            "samplers" : [
                {
                    "input" : 16,
                    "interpolation" : "LINEAR",
                    "output" : 17
                }
            ]
        },
        {
            "channels" : [
                {
                    "sampler" : 0,
                    "target" : {
                        "node" : 2,
                        "path" : "scale"
                    }
                }
            ],
            "name" : "Wave2",
            "samplers" : [
                {
                    "input" : 16,
                    "interpolation" : "LINEAR",
                    "output" : 18
                }
            ]
        }
    ],
    "materials" : [
        {
            "doubleSided" : true,
            "name" : "Material.002",
            "normalTexture" : {
                "index" : 0
            },
            "pbrMetallicRoughness" : {
                "baseColorTexture" : {
                    "index" : 1
                },
                "metallicFactor" : 0,
                "roughnessFactor" : 0.6090909242630005
            }
        },
        {
            "alphaMode" : "BLEND",
            "doubleSided" : true,
            "name" : "fern",
            "pbrMetallicRoughness" : {
                "baseColorTexture" : {
                    "index" : 2
                },
                "metallicFactor" : 0,
                "roughnessFactor" : 0.6613636016845703
            }
        },
        {
            "doubleSided" : true,
            "name" : "Material",
            "normalTexture" : {
                "index" : 3
            },
            "pbrMetallicRoughness" : {
                "baseColorTexture" : {
                    "index" : 4
                },
                "metallicFactor" : 0,
                "roughnessFactor" : 0.4000000059604645
            }
        }
    ],
    "meshes" : [
        {
            "name" : "Cube.001",
            "primitives" : [
                {
                    "attributes" : {
                        "POSITION" : 0,
                        "NORMAL" : 1,
                        "TEXCOORD_0" : 2
                    },
                    "indices" : 3,
                    "material" : 0
                }
            ]
        },
        {
            "name" : "Plane",
            "primitives" : [
                {
                    "attributes" : {
                        "POSITION" : 4,
                        "NORMAL" : 5,
                        "TEXCOORD_0" : 6
                    },
                    "indices" : 7,
                    "material" : 1
                }
            ]
        },
        {
            "name" : "Plane.001",
            "primitives" : [
                {
                    "attributes" : {
                        "POSITION" : 8,
                        "NORMAL" : 9,
                        "TEXCOORD_0" : 10
                    },
                    "indices" : 11,
                    "material" : 1
                }
            ]
        },
        {
            "name" : "Icosphere",
            "primitives" : [
                {
                    "attributes" : {
                        "POSITION" : 12,
                        "NORMAL" : 13,
                        "TEXCOORD_0" : 14
                    },
                    "indices" : 15,
                    "material" : 2
                }
            ]
        }
    ],
    "textures" : [
        {
            "sampler" : 0,
            "source" : 0
        },
        {
            "sampler" : 0,
            "source" : 1
        },
        {
            "sampler" : 0,
            "source" : 2
        },
        {
            "sampler" : 0,
            "source" : 0
        },
        {
            "sampler" : 0,
            "source" : 1
        }
    ],
    "images" : [
        {
            "mimeType" : "image/png",
            "name" : "ground-normal",
            "uri" : "../textures/ground/ground-normal.png"
        },
        {
            "mimeType" : "image/png",
            "name" : "ground-texture",
            "uri" : "../textures/ground/ground-texture.png"
        },
        {
            "mimeType" : "image/png",
            "name" : "fern",
            "uri" : "../textures/ground/fern.png"
        }
    ],
    "accessors" : [
        {
            "bufferView" : 0,
            "componentType" : 5126,
            "count" : 762,
            "max" : [
                4.864533424377441,
                3.362910509109497,
                12.394800186157227
            ],
            "min" : [
                -12.518269538879395,
                -1.1853994131088257,
                -5.920388698577881
            ],
            "type" : "VEC3"
        },
        {
            "bufferView" : 1,
            "componentType" : 5126,
            "count" : 762,
            "type" : "VEC3"
        },
        {
            "bufferView" : 2,
            "componentType" : 5126,
            "count" : 762,
            "type" : "VEC2"
        },
        {
            "bufferView" : 3,
            "componentType" : 5123,
            "count" : 1152,
            "type" : "SCALAR"
        },
        {
            "bufferView" : 4,
            "componentType" : 5126,
            "count" : 300,
            "max" : [
                4.559974670410156,
                2.8252720832824707,
                4.001099586486816
            ],
            "min" : [
                -4.313158988952637,
                0.007980743423104286,
                -4.46435546875
            ],
            "type" : "VEC3"
        },
        {
            "bufferView" : 5,
            "componentType" : 5126,
            "count" : 300,
            "type" : "VEC3"
        },
        {
            "bufferView" : 6,
            "componentType" : 5126,
            "count" : 300,
            "type" : "VEC2"
        },
        {
            "bufferView" : 7,
            "componentType" : 5123,
            "count" : 420,
            "type" : "SCALAR"
        },
        {
            "bufferView" : 8,
            "componentType" : 5126,
            "count" : 120,
            "max" : [
                2.07413911819458,
                4.189033031463623,
                3.014453887939453
            ],
            "min" : [
                -1.1915333271026611,
                0.006555481348186731,
                -3.0336015224456787
            ],
            "type" : "VEC3"
        },
        {
            "bufferView" : 9,
            "componentType" : 5126,
            "count" : 120,
            "type" : "VEC3"
        },
        {
            "bufferView" : 10,
            "componentType" : 5126,
            "count" : 120,
            "type" : "VEC2"
        },
        {
            "bufferView" : 11,
            "componentType" : 5123,
            "count" : 168,
            "type" : "SCALAR"
        },
        {
            "bufferView" : 12,
            "componentType" : 5126,
            "count" : 120,
            "max" : [
                0.8944249749183655,
                0.7842985391616821,
                1.8608652353286743
            ],
            "min" : [
                -0.8944249749183655,
                -1.0698347091674805,
                -0.8506399989128113
            ],
            "type" : "VEC3"
        },
        {
            "bufferView" : 13,
            "componentType" : 5126,
            "count" : 120,
            "type" : "VEC3"
        },
        {
            "bufferView" : 14,
            "componentType" : 5126,
            "count" : 120,
            "type" : "VEC2"
        },
        {
            "bufferView" : 15,
            "componentType" : 5123,
            "count" : 120,
            "type" : "SCALAR"
        },
        {
            "bufferView" : 16,
            "componentType" : 5126,
            "count" : 121,
            "max" : [
                2
            ],
            "min" : [
                0
            ],
            "type" : "SCALAR"
        },
        {
            "bufferView" : 17,
            "componentType" : 5126,
            "count" : 121,
            "type" : "VEC3"
        },
        {
            "bufferView" : 18,
            "componentType" : 5126,
            "count" : 121,
            "type" : "VEC3"
        }
    ],
    "bufferViews" : [
        {
            "buffer" : 0,
            "byteLength" : 9144,
            "byteOffset" : 0
        },
        {
            "buffer" : 0,
            "byteLength" : 9144,
            "byteOffset" : 9144
        },
        {
            "buffer" : 0,
            "byteLength" : 6096,
            "byteOffset" : 18288
        },
        {
            "buffer" : 0,
            "byteLength" : 2304,
            "byteOffset" : 24384
        },
        {
            "buffer" : 0,
            "byteLength" : 3600,
            "byteOffset" : 26688
        },
        {
            "buffer" : 0,
            "byteLength" : 3600,
            "byteOffset" : 30288
        },
        {
            "buffer" : 0,
            "byteLength" : 2400,
            "byteOffset" : 33888
        },
        {
            "buffer" : 0,
            "byteLength" : 840,
            "byteOffset" : 36288
        },
        {
            "buffer" : 0,
            "byteLength" : 1440,
            "byteOffset" : 37128
        },
        {
            "buffer" : 0,
            "byteLength" : 1440,
            "byteOffset" : 38568
        },
        {
            "buffer" : 0,
            "byteLength" : 960,
            "byteOffset" : 40008
        },
        {
            "buffer" : 0,
            "byteLength" : 336,
            "byteOffset" : 40968
        },
        {
            "buffer" : 0,
            "byteLength" : 1440,
            "byteOffset" : 41304
        },
        {
            "buffer" : 0,
            "byteLength" : 1440,
            "byteOffset" : 42744
        },
        {
            "buffer" : 0,
            "byteLength" : 960,
            "byteOffset" : 44184
        },
        {
            "buffer" : 0,
            "byteLength" : 240,
            "byteOffset" : 45144
        },
        {
            "buffer" : 0,
            "byteLength" : 484,
            "byteOffset" : 45384
        },
        {
            "buffer" : 0,
            "byteLength" : 1452,
            "byteOffset" : 45868
        },
        {
            "buffer" : 0,
            "byteLength" : 1452,
            "byteOffset" : 47320
        }
    ],
    "samplers" : [
        {
            "magFilter" : 9729,
            "minFilter" : 9987
        }
    ],
    "buffers" : [
        {
            "byteLength" : 48772,
            "uri" : "ground.bin"
        }
    ]
}
