{
    "asset" : {
        "generator" : "Khronos glTF Blender I/O v1.7.33",
        "version" : "2.0"
    },
    "scene" : 0,
    "scenes" : [
        {
            "name" : "Scene",
            "nodes" : [
                0,
                1
            ]
        }
    ],
    "nodes" : [
        {
            "mesh" : 0,
            "name" : "Key"
        },
        {
            "mesh" : 1,
            "name" : "Blocker"
        }
    ],
    "materials" : [
        {
            "doubleSided" : true,
            "name" : "Material",
            "pbrMetallicRoughness" : {
                "baseColorFactor" : [
                    0.8000000715255737,
                    0.6525111198425293,
                    0,
                    1
                ],
                "metallicFactor" : 0.2072727233171463,
                "roughnessFactor" : 0.15636363625526428
            }
        },
        {
            "doubleSided" : true,
            "name" : "Material.001",
            "pbrMetallicRoughness" : {
                "baseColorFactor" : [
                    0.8000000715255737,
                    0,
                    0.0002850597957149148,
                    1
                ],
                "metallicFactor" : 0.22545453906059265,
                "roughnessFactor" : 0.7036363482475281
            }
        }
    ],
    "meshes" : [
        {
            "name" : "Cube",
            "primitives" : [
                {
                    "attributes" : {
                        "POSITION" : 0,
                        "NORMAL" : 1,
                        "TEXCOORD_0" : 2
                    },
                    "indices" : 3,
                    "material" : 0
                }
            ]
        },
        {
            "name" : "Torus",
            "primitives" : [
                {
                    "attributes" : {
                        "POSITION" : 4,
                        "NORMAL" : 5,
                        "TEXCOORD_0" : 6
                    },
                    "indices" : 7,
                    "material" : 1
                }
            ]
        }
    ],
    "accessors" : [
        {
            "bufferView" : 0,
            "componentType" : 5126,
            "count" : 196,
            "max" : [
                0.9238795042037964,
                0.15110574662685394,
                3.7528586387634277
            ],
            "min" : [
                -0.9471821784973145,
                -0.15110574662685394,
                -0.9238796234130859
            ],
            "type" : "VEC3"
        },
        {
            "bufferView" : 1,
            "componentType" : 5126,
            "count" : 196,
            "type" : "VEC3"
        },
        {
            "bufferView" : 2,
            "componentType" : 5126,
            "count" : 196,
            "type" : "VEC2"
        },
        {
            "bufferView" : 3,
            "componentType" : 5123,
            "count" : 312,
            "type" : "SCALAR"
        },
        {
            "bufferView" : 4,
            "componentType" : 5126,
            "count" : 1216,
            "max" : [
                3.0199999809265137,
                0.22527259588241577,
                3.0199999809265137
            ],
            "min" : [
                -3.0199999809265137,
                -2.9807262420654297,
                -3.0199999809265137
            ],
            "type" : "VEC3"
        },
        {
            "bufferView" : 5,
            "componentType" : 5126,
            "count" : 1216,
            "type" : "VEC3"
        },
        {
            "bufferView" : 6,
            "componentType" : 5126,
            "count" : 1216,
            "type" : "VEC2"
        },
        {
            "bufferView" : 7,
            "componentType" : 5123,
            "count" : 1824,
            "type" : "SCALAR"
        }
    ],
    "bufferViews" : [
        {
            "buffer" : 0,
            "byteLength" : 2352,
            "byteOffset" : 0
        },
        {
            "buffer" : 0,
            "byteLength" : 2352,
            "byteOffset" : 2352
        },
        {
            "buffer" : 0,
            "byteLength" : 1568,
            "byteOffset" : 4704
        },
        {
            "buffer" : 0,
            "byteLength" : 624,
            "byteOffset" : 6272
        },
        {
            "buffer" : 0,
            "byteLength" : 14592,
            "byteOffset" : 6896
        },
        {
            "buffer" : 0,
            "byteLength" : 14592,
            "byteOffset" : 21488
        },
        {
            "buffer" : 0,
            "byteLength" : 9728,
            "byteOffset" : 36080
        },
        {
            "buffer" : 0,
            "byteLength" : 3648,
            "byteOffset" : 45808
        }
    ],
    "buffers" : [
        {
            "byteLength" : 49456,
            "uri" : "pickables.bin"
        }
    ]
}
